<svg xmlns="http://www.w3.org/2000/svg" viewBox="0 0 1280 720">
  <rect width="1280" height="720" fill="#FFFFFF"/>
  <rect x="0" y="0" width="1280" height="80" fill="#F8FAFC"/>
  <text x="640" y="55" text-anchor="middle" font-family="Microsoft YaHei, PingFang SC, Arial, sans-serif" font-size="56" font-weight="bold" fill="#1E293B">论文汇报目录</text>
  <rect x="60" y="100" width="1160" height="4" fill="#1565C0"/>
  <rect x="180" y="200" width="920" height="60" rx="8" fill="#F8FAFC" stroke="#E2E8F0" stroke-width="1"/>
  <circle cx="210" cy="230" r="16" fill="#1565C0"/>
  <text x="250" y="238" font-family="Microsoft YaHei, PingFang SC, Arial, sans-serif" font-size="40" font-weight="bold" fill="#1E293B">研究背景</text>
  <text x="450" y="238" font-family="Microsoft YaHei, PingFang SC, Arial, sans-serif" font-size="32" fill="#64748B">选题背景及国内外研究现状</text>
  <rect x="180" y="300" width="920" height="60" rx="8" fill="#F8FAFC" stroke="#E2E8F0" stroke-width="1"/>
  <circle cx="210" cy="330" r="16" fill="#1565C0"/>
  <text x="250" y="338" font-family="Microsoft YaHei, PingFang SC, Arial, sans-serif" font-size="40" font-weight="bold" fill="#1E293B">项目技术路线</text>
  <text x="480" y="338" font-family="Microsoft YaHei, PingFang SC, Arial, sans-serif" font-size="32" fill="#64748B">开发环境与系统架构</text>
  <rect x="180" y="400" width="920" height="60" rx="8" fill="#F8FAFC" stroke="#E2E8F0" stroke-width="1"/>
  <circle cx="210" cy="430" r="16" fill="#1565C0"/>
  <text x="250" y="438" font-family="Microsoft YaHei, PingFang SC, Arial, sans-serif" font-size="40" font-weight="bold" fill="#1E293B">项目功能</text>
  <text x="400" y="438" font-family="Microsoft YaHei, PingFang SC, Arial, sans-serif" font-size="32" fill="#64748B">系统功能模块与数据库设计</text>
  <rect x="180" y="500" width="920" height="60" rx="8" fill="#F8FAFC" stroke="#E2E8F0" stroke-width="1"/>
  <circle cx="210" cy="530" r="16" fill="#1565C0"/>
  <text x="250" y="538" font-family="Microsoft YaHei, PingFang SC, Arial, sans-serif" font-size="40" font-weight="bold" fill="#1E293B">核心流程与总结</text>
  <text x="480" y="538" font-family="Microsoft YaHei, PingFang SC, Arial, sans-serif" font-size="32" fill="#64748B">业务流程与未来展望</text>
  <rect x="0" y="640" width="1280" height="80" fill="#F8FAFC"/>
  <text x="1200" y="700" text-anchor="end" font-family="Microsoft YaHei, PingFang SC, Arial, sans-serif" font-size="19" fill="#94A3B8">2/10</text>
</svg>